<mxfile host="app.diagrams.net" modified="2020-12-01T14:44:37.394Z" agent="5.0 (Windows NT 10.0; Win64; x64) AppleWebKit/537.36 (KHTML, like Gecko) Chrome/87.0.4280.66 Safari/537.36" etag="K2XA8QOpB6TociwcDWkJ" version="13.10.1" type="github">
  <diagram id="AVUFm7KUnOCwmDu6Q7k5" name="Page-1">
    <mxGraphModel dx="852" dy="398" grid="1" gridSize="10" guides="1" tooltips="1" connect="1" arrows="1" fold="1" page="1" pageScale="1" pageWidth="850" pageHeight="1100" math="0" shadow="0">
      <root>
        <mxCell id="0" />
        <mxCell id="1" parent="0" />
        <mxCell id="Poc4wknqnShsJzunrAv8-9" value="Person" style="swimlane;fontStyle=1;align=center;verticalAlign=top;childLayout=stackLayout;horizontal=1;startSize=26;horizontalStack=0;resizeParent=1;resizeParentMax=0;resizeLast=0;collapsible=1;marginBottom=0;" vertex="1" parent="1">
          <mxGeometry x="80" y="240" width="200" height="268" as="geometry" />
        </mxCell>
        <mxCell id="Poc4wknqnShsJzunrAv8-10" value="- name:String" style="text;strokeColor=none;fillColor=none;align=left;verticalAlign=top;spacingLeft=4;spacingRight=4;overflow=hidden;rotatable=0;points=[[0,0.5],[1,0.5]];portConstraint=eastwest;" vertex="1" parent="Poc4wknqnShsJzunrAv8-9">
          <mxGeometry y="26" width="200" height="26" as="geometry" />
        </mxCell>
        <mxCell id="Poc4wknqnShsJzunrAv8-14" value="- address:String" style="text;strokeColor=none;fillColor=none;align=left;verticalAlign=top;spacingLeft=4;spacingRight=4;overflow=hidden;rotatable=0;points=[[0,0.5],[1,0.5]];portConstraint=eastwest;" vertex="1" parent="Poc4wknqnShsJzunrAv8-9">
          <mxGeometry y="52" width="200" height="26" as="geometry" />
        </mxCell>
        <mxCell id="Poc4wknqnShsJzunrAv8-15" value="- number:String" style="text;strokeColor=none;fillColor=none;align=left;verticalAlign=top;spacingLeft=4;spacingRight=4;overflow=hidden;rotatable=0;points=[[0,0.5],[1,0.5]];portConstraint=eastwest;" vertex="1" parent="Poc4wknqnShsJzunrAv8-9">
          <mxGeometry y="78" width="200" height="26" as="geometry" />
        </mxCell>
        <mxCell id="Poc4wknqnShsJzunrAv8-11" value="" style="line;strokeWidth=1;fillColor=none;align=left;verticalAlign=middle;spacingTop=-1;spacingLeft=3;spacingRight=3;rotatable=0;labelPosition=right;points=[];portConstraint=eastwest;" vertex="1" parent="Poc4wknqnShsJzunrAv8-9">
          <mxGeometry y="104" width="200" height="8" as="geometry" />
        </mxCell>
        <mxCell id="Poc4wknqnShsJzunrAv8-12" value="+ getName():String" style="text;strokeColor=none;fillColor=none;align=left;verticalAlign=top;spacingLeft=4;spacingRight=4;overflow=hidden;rotatable=0;points=[[0,0.5],[1,0.5]];portConstraint=eastwest;" vertex="1" parent="Poc4wknqnShsJzunrAv8-9">
          <mxGeometry y="112" width="200" height="26" as="geometry" />
        </mxCell>
        <mxCell id="Poc4wknqnShsJzunrAv8-17" value="+ setName(name:String):void" style="text;strokeColor=none;fillColor=none;align=left;verticalAlign=top;spacingLeft=4;spacingRight=4;overflow=hidden;rotatable=0;points=[[0,0.5],[1,0.5]];portConstraint=eastwest;" vertex="1" parent="Poc4wknqnShsJzunrAv8-9">
          <mxGeometry y="138" width="200" height="26" as="geometry" />
        </mxCell>
        <mxCell id="Poc4wknqnShsJzunrAv8-22" value="+ getAddress():String" style="text;strokeColor=none;fillColor=none;align=left;verticalAlign=top;spacingLeft=4;spacingRight=4;overflow=hidden;rotatable=0;points=[[0,0.5],[1,0.5]];portConstraint=eastwest;" vertex="1" parent="Poc4wknqnShsJzunrAv8-9">
          <mxGeometry y="164" width="200" height="26" as="geometry" />
        </mxCell>
        <mxCell id="Poc4wknqnShsJzunrAv8-21" value="+ setAddress(address:String):void" style="text;strokeColor=none;fillColor=none;align=left;verticalAlign=top;spacingLeft=4;spacingRight=4;overflow=hidden;rotatable=0;points=[[0,0.5],[1,0.5]];portConstraint=eastwest;" vertex="1" parent="Poc4wknqnShsJzunrAv8-9">
          <mxGeometry y="190" width="200" height="26" as="geometry" />
        </mxCell>
        <mxCell id="Poc4wknqnShsJzunrAv8-20" value="+ getNumber():String" style="text;strokeColor=none;fillColor=none;align=left;verticalAlign=top;spacingLeft=4;spacingRight=4;overflow=hidden;rotatable=0;points=[[0,0.5],[1,0.5]];portConstraint=eastwest;" vertex="1" parent="Poc4wknqnShsJzunrAv8-9">
          <mxGeometry y="216" width="200" height="26" as="geometry" />
        </mxCell>
        <mxCell id="Poc4wknqnShsJzunrAv8-19" value="+ setNumber(number:String):void" style="text;strokeColor=none;fillColor=none;align=left;verticalAlign=top;spacingLeft=4;spacingRight=4;overflow=hidden;rotatable=0;points=[[0,0.5],[1,0.5]];portConstraint=eastwest;" vertex="1" parent="Poc4wknqnShsJzunrAv8-9">
          <mxGeometry y="242" width="200" height="26" as="geometry" />
        </mxCell>
        <mxCell id="Poc4wknqnShsJzunrAv8-23" value="Customer" style="swimlane;fontStyle=1;align=center;verticalAlign=top;childLayout=stackLayout;horizontal=1;startSize=26;horizontalStack=0;resizeParent=1;resizeParentMax=0;resizeLast=0;collapsible=1;marginBottom=0;" vertex="1" parent="1">
          <mxGeometry x="480" y="240" width="300" height="192" as="geometry" />
        </mxCell>
        <mxCell id="Poc4wknqnShsJzunrAv8-24" value="- customerNumber:String" style="text;strokeColor=none;fillColor=none;align=left;verticalAlign=top;spacingLeft=4;spacingRight=4;overflow=hidden;rotatable=0;points=[[0,0.5],[1,0.5]];portConstraint=eastwest;" vertex="1" parent="Poc4wknqnShsJzunrAv8-23">
          <mxGeometry y="26" width="300" height="26" as="geometry" />
        </mxCell>
        <mxCell id="Poc4wknqnShsJzunrAv8-27" value="- mailingList:boolean" style="text;strokeColor=none;fillColor=none;align=left;verticalAlign=top;spacingLeft=4;spacingRight=4;overflow=hidden;rotatable=0;points=[[0,0.5],[1,0.5]];portConstraint=eastwest;" vertex="1" parent="Poc4wknqnShsJzunrAv8-23">
          <mxGeometry y="52" width="300" height="26" as="geometry" />
        </mxCell>
        <mxCell id="Poc4wknqnShsJzunrAv8-25" value="" style="line;strokeWidth=1;fillColor=none;align=left;verticalAlign=middle;spacingTop=-1;spacingLeft=3;spacingRight=3;rotatable=0;labelPosition=right;points=[];portConstraint=eastwest;" vertex="1" parent="Poc4wknqnShsJzunrAv8-23">
          <mxGeometry y="78" width="300" height="8" as="geometry" />
        </mxCell>
        <mxCell id="Poc4wknqnShsJzunrAv8-26" value="+ getCustomerNumber():String" style="text;strokeColor=none;fillColor=none;align=left;verticalAlign=top;spacingLeft=4;spacingRight=4;overflow=hidden;rotatable=0;points=[[0,0.5],[1,0.5]];portConstraint=eastwest;" vertex="1" parent="Poc4wknqnShsJzunrAv8-23">
          <mxGeometry y="86" width="300" height="26" as="geometry" />
        </mxCell>
        <mxCell id="Poc4wknqnShsJzunrAv8-29" value="+ setCustomerNumber(customerNumber:String):void" style="text;strokeColor=none;fillColor=none;align=left;verticalAlign=top;spacingLeft=4;spacingRight=4;overflow=hidden;rotatable=0;points=[[0,0.5],[1,0.5]];portConstraint=eastwest;" vertex="1" parent="Poc4wknqnShsJzunrAv8-23">
          <mxGeometry y="112" width="300" height="28" as="geometry" />
        </mxCell>
        <mxCell id="Poc4wknqnShsJzunrAv8-30" value="+ isMailingList():boolean" style="text;strokeColor=none;fillColor=none;align=left;verticalAlign=top;spacingLeft=4;spacingRight=4;overflow=hidden;rotatable=0;points=[[0,0.5],[1,0.5]];portConstraint=eastwest;" vertex="1" parent="Poc4wknqnShsJzunrAv8-23">
          <mxGeometry y="140" width="300" height="26" as="geometry" />
        </mxCell>
        <mxCell id="Poc4wknqnShsJzunrAv8-28" value="+ setMailingList(mailingList:boolean):void" style="text;strokeColor=none;fillColor=none;align=left;verticalAlign=top;spacingLeft=4;spacingRight=4;overflow=hidden;rotatable=0;points=[[0,0.5],[1,0.5]];portConstraint=eastwest;" vertex="1" parent="Poc4wknqnShsJzunrAv8-23">
          <mxGeometry y="166" width="300" height="26" as="geometry" />
        </mxCell>
        <mxCell id="Poc4wknqnShsJzunrAv8-33" value="PreferredCustomer" style="swimlane;fontStyle=1;align=center;verticalAlign=top;childLayout=stackLayout;horizontal=1;startSize=26;horizontalStack=0;resizeParent=1;resizeParentMax=0;resizeLast=0;collapsible=1;marginBottom=0;" vertex="1" parent="1">
          <mxGeometry x="537" y="548" width="195" height="190" as="geometry" />
        </mxCell>
        <mxCell id="Poc4wknqnShsJzunrAv8-34" value="- purchase:int" style="text;strokeColor=none;fillColor=none;align=left;verticalAlign=top;spacingLeft=4;spacingRight=4;overflow=hidden;rotatable=0;points=[[0,0.5],[1,0.5]];portConstraint=eastwest;" vertex="1" parent="Poc4wknqnShsJzunrAv8-33">
          <mxGeometry y="26" width="195" height="26" as="geometry" />
        </mxCell>
        <mxCell id="Poc4wknqnShsJzunrAv8-37" value="- discount:int" style="text;strokeColor=none;fillColor=none;align=left;verticalAlign=top;spacingLeft=4;spacingRight=4;overflow=hidden;rotatable=0;points=[[0,0.5],[1,0.5]];portConstraint=eastwest;" vertex="1" parent="Poc4wknqnShsJzunrAv8-33">
          <mxGeometry y="52" width="195" height="26" as="geometry" />
        </mxCell>
        <mxCell id="Poc4wknqnShsJzunrAv8-35" value="" style="line;strokeWidth=1;fillColor=none;align=left;verticalAlign=middle;spacingTop=-1;spacingLeft=3;spacingRight=3;rotatable=0;labelPosition=right;points=[];portConstraint=eastwest;" vertex="1" parent="Poc4wknqnShsJzunrAv8-33">
          <mxGeometry y="78" width="195" height="8" as="geometry" />
        </mxCell>
        <mxCell id="Poc4wknqnShsJzunrAv8-38" value="+ getPurchase():int" style="text;strokeColor=none;fillColor=none;align=left;verticalAlign=top;spacingLeft=4;spacingRight=4;overflow=hidden;rotatable=0;points=[[0,0.5],[1,0.5]];portConstraint=eastwest;" vertex="1" parent="Poc4wknqnShsJzunrAv8-33">
          <mxGeometry y="86" width="195" height="26" as="geometry" />
        </mxCell>
        <mxCell id="Poc4wknqnShsJzunrAv8-39" value="+ setPurchase(purchase:int):void" style="text;strokeColor=none;fillColor=none;align=left;verticalAlign=top;spacingLeft=4;spacingRight=4;overflow=hidden;rotatable=0;points=[[0,0.5],[1,0.5]];portConstraint=eastwest;" vertex="1" parent="Poc4wknqnShsJzunrAv8-33">
          <mxGeometry y="112" width="195" height="26" as="geometry" />
        </mxCell>
        <mxCell id="Poc4wknqnShsJzunrAv8-36" value="+ getDiscount():int" style="text;strokeColor=none;fillColor=none;align=left;verticalAlign=top;spacingLeft=4;spacingRight=4;overflow=hidden;rotatable=0;points=[[0,0.5],[1,0.5]];portConstraint=eastwest;" vertex="1" parent="Poc4wknqnShsJzunrAv8-33">
          <mxGeometry y="138" width="195" height="26" as="geometry" />
        </mxCell>
        <mxCell id="Poc4wknqnShsJzunrAv8-40" value="+ setDiscount(discount:int):void" style="text;strokeColor=none;fillColor=none;align=left;verticalAlign=top;spacingLeft=4;spacingRight=4;overflow=hidden;rotatable=0;points=[[0,0.5],[1,0.5]];portConstraint=eastwest;" vertex="1" parent="Poc4wknqnShsJzunrAv8-33">
          <mxGeometry y="164" width="195" height="26" as="geometry" />
        </mxCell>
        <mxCell id="Poc4wknqnShsJzunrAv8-41" value="Extends" style="endArrow=block;endSize=16;endFill=0;html=1;entryX=1;entryY=0.5;entryDx=0;entryDy=0;exitX=0;exitY=0.5;exitDx=0;exitDy=0;" edge="1" parent="1" source="Poc4wknqnShsJzunrAv8-29" target="Poc4wknqnShsJzunrAv8-12">
          <mxGeometry width="160" relative="1" as="geometry">
            <mxPoint x="420" y="520" as="sourcePoint" />
            <mxPoint x="580" y="520" as="targetPoint" />
          </mxGeometry>
        </mxCell>
        <mxCell id="Poc4wknqnShsJzunrAv8-43" value="Extends" style="endArrow=block;endSize=16;endFill=0;html=1;exitX=0.55;exitY=0.002;exitDx=0;exitDy=0;exitPerimeter=0;" edge="1" parent="1">
          <mxGeometry width="160" relative="1" as="geometry">
            <mxPoint x="629.25" y="547.38" as="sourcePoint" />
            <mxPoint x="630" y="433" as="targetPoint" />
          </mxGeometry>
        </mxCell>
      </root>
    </mxGraphModel>
  </diagram>
</mxfile>
